<?xml version="1.0" encoding="utf-8"?>
<!-- Generator: Adobe Illustrator 26.0.2, SVG Export Plug-In . SVG Version: 6.00 Build 0)  -->
<svg version="1.1" id="Layer_1" xmlns="http://www.w3.org/2000/svg" xmlns:xlink="http://www.w3.org/1999/xlink" x="0px" y="0px"
	 viewBox="0 0 527.7 269.9" style="enable-background:new 0 0 527.7 269.9;" xml:space="preserve">
<style type="text/css">
	.st0{opacity:0.2;fill:#7F7F7F;stroke:#000000;stroke-miterlimit:10;enable-background:new    ;}
	.st1{fill:none;stroke:#707071;stroke-miterlimit:10;}
	.st2{font-family:'MyriadPro-Bold';}
	.st3{font-size:23px;}
</style>
<path class="st0" d="M136.5,121.3c0,43.5,38.5,81.4,95.8,101.9c45.4-20.5,75.9-58.5,75.9-101.9s-30.5-81.4-75.9-101.9
	C175,39.8,136.5,77.8,136.5,121.3z"/>
<ellipse class="st0" cx="155.6" cy="121.4" rx="153.5" ry="118.1"/>
<ellipse class="st0" cx="331.3" cy="121.4" rx="193.8" ry="118.1"/>
<ellipse class="st1" cx="155.6" cy="121.4" rx="153.5" ry="118.1"/>
<ellipse class="st1" cx="331.3" cy="121.4" rx="193.8" ry="118.1"/>
<text transform="matrix(1 0 0 1 95.2692 259.7365)" class="st2 st3">Data Array</text>
<text transform="matrix(1 0 0 1 275.9554 259.7361)" class="st2 st3">D3 Selection</text>
<text transform="matrix(1 0 0 1 167.7756 85.5941)" class="st2 st3">red</text>
<text transform="matrix(1 0 0 1 177.8756 113.1941)" class="st2 st3">4</text>
<text transform="matrix(1 0 0 1 228.9035 113.355)" class="st2 st3">blue</text>
<text transform="matrix(1 0 0 1 244.4035 140.955)" class="st2 st3">3</text>
<text transform="matrix(1 0 0 1 17.2664 129.3616)" class="st2 st3">black</text>
<text transform="matrix(1 0 0 1 36.6664 156.9616)" class="st2 st3">2</text>
<text transform="matrix(1 0 0 1 78.284 180.8259)" class="st2 st3">orange</text>
<text transform="matrix(1 0 0 1 106.584 208.4259)" class="st2 st3">4</text>
<g id="n7CsmI.tif">
	
		<image style="overflow:visible;enable-background:new    ;" width="98" height="40" id="Layer_0_00000175316428984333915490000010802017716299382681_" xlink:href="3CFCE447AB5C27B8.png"  transform="matrix(0.4877 0 0 0.4877 159.7248 121.0039)">
	</image>
</g>
<g id="_x34_DrLvr.tif">
	
		<image style="overflow:visible;enable-background:new    ;" width="102" height="80" id="Layer_0_00000006685144583096918560000011119145040177187496_" xlink:href="3CFCE447AB5C27B9.png"  transform="matrix(0.4892 0 0 0.4892 224.4979 145.8743)">
	</image>
</g>
<g id="xFtriz.tif">
	
		<image style="overflow:visible;enable-background:new    ;" width="96" height="122" id="Layer_0_00000080912534543141422360000017511016461990312346_" xlink:href="3CFCE447AB5C27BF.png"  transform="matrix(0.491 0 0 0.491 309.0966 25.646)">
	</image>
</g>
<g id="FlNbYi.tif">
	
		<image style="overflow:visible;enable-background:new    ;" width="96" height="154" id="Layer_0_00000144339503835152695510000009878291982034020525_" xlink:href="3CFCE447AB5C27BA.png"  transform="matrix(0.4924 0 0 0.4924 313.2147 142.9106)">
	</image>
</g>
<g id="jY7NYD.tif">
	
		<image style="overflow:visible;enable-background:new    ;" width="98" height="196" id="Layer_0_00000084523568116996447200000002559438862366066835_" xlink:href="3CFCE447AB5C27BB.png"  transform="matrix(0.4939 0 0 0.4939 364.3383 60.0606)">
	</image>
</g>
<g id="_x33_XusP5.tif">
	
		<image style="overflow:visible;enable-background:new    ;" width="92" height="234" id="Layer_0_00000116221525953243794280000017860111319673041796_" xlink:href="3CFCE447AB5C27B6.png"  transform="matrix(0.4948 0 0 0.4948 416.0733 83.0574)">
	</image>
</g>
</svg>
