<?xml version="1.0" encoding="utf-8"?>
<!-- Generator: Adobe Illustrator 26.0.2, SVG Export Plug-In . SVG Version: 6.00 Build 0)  -->
<svg version="1.1" id="Layer_1" xmlns="http://www.w3.org/2000/svg" xmlns:xlink="http://www.w3.org/1999/xlink" x="0px" y="0px"
	 viewBox="0 0 726.4 269.9" style="enable-background:new 0 0 726.4 269.9;" xml:space="preserve">
<style type="text/css">
	.st0{opacity:0.2;fill:#7F7F7F;stroke:#000000;stroke-miterlimit:10;enable-background:new    ;}
	.st1{fill:none;stroke:#707071;stroke-miterlimit:10;}
	.st2{font-family:'MyriadPro-Bold';}
	.st3{font-size:23px;}
</style>
<ellipse class="st0" cx="528.7" cy="121.4" rx="193.8" ry="118.1"/>
<ellipse class="st0" cx="156.6" cy="121.4" rx="153.5" ry="118.1"/>
<ellipse class="st1" cx="156.6" cy="121.4" rx="153.5" ry="118.1"/>
<text transform="matrix(1 0 0 1 98.2692 259.7365)" class="st2 st3">Data Array</text>
<text transform="matrix(1 0 0 1 168.7756 85.5941)" class="st2 st3">red</text>
<text transform="matrix(1 0 0 1 178.8756 113.1941)" class="st2 st3">4</text>
<text transform="matrix(1 0 0 1 229.9035 113.355)" class="st2 st3">blue</text>
<text transform="matrix(1 0 0 1 245.4035 140.955)" class="st2 st3">3</text>
<text transform="matrix(1 0 0 1 18.2664 129.3616)" class="st2 st3">black</text>
<text transform="matrix(1 0 0 1 37.6664 156.9616)" class="st2 st3">2</text>
<text transform="matrix(1 0 0 1 79.284 180.8259)" class="st2 st3">orange</text>
<text transform="matrix(1 0 0 1 107.584 208.4259)" class="st2 st3">4</text>
<ellipse class="st1" cx="528.7" cy="121.4" rx="193.8" ry="118.1"/>
<text transform="matrix(1 0 0 1 468.343 259.7361)" class="st2 st3">D3 Selection</text>
<g id="n7CsmI.tif_00000124847441367360263560000016307515005716871556_">
	
		<image style="overflow:visible;enable-background:new    ;" width="98" height="40" id="Layer_0_00000098943313675407045740000015162038553775436931_" xlink:href="5F16C5FE42D0ABB1.png"  transform="matrix(0.4877 0 0 0.4877 357.1525 121.0039)">
	</image>
</g>
<g id="_x34_DrLvr.tif_00000084496941206719734480000009052690157131175064_">
	
		<image style="overflow:visible;enable-background:new    ;" width="102" height="80" id="Layer_0_00000111154338099347676020000003347207479689028747_" xlink:href="5F16C5FE42D0ABB2.png"  transform="matrix(0.4892 0 0 0.4892 421.9256 145.8743)">
	</image>
</g>
<g id="xFtriz.tif_00000146468223693390099830000000601750513909330320_">
	
		<image style="overflow:visible;enable-background:new    ;" width="96" height="122" id="Layer_0_00000142875916628651120160000016190189441430164146_" xlink:href="5F16C5FE42D0ABB3.png"  transform="matrix(0.491 0 0 0.491 506.5242 25.646)">
	</image>
</g>
<g id="FlNbYi.tif_00000090997709744165565840000008820371823358652064_">
	
		<image style="overflow:visible;enable-background:new    ;" width="96" height="154" id="Layer_0_00000170237242106260311040000014821763858343469722_" xlink:href="5F16C5FE42D0ABB0.png"  transform="matrix(0.4924 0 0 0.4924 510.6423 142.9106)">
	</image>
</g>
<g id="jY7NYD.tif_00000037658184077248083690000008986662819138929590_">
	
		<image style="overflow:visible;enable-background:new    ;" width="98" height="196" id="Layer_0_00000069386282074400911240000018198240150817397381_" xlink:href="5F16C5FE42D0ABAD.png"  transform="matrix(0.4939 0 0 0.4939 561.766 60.0606)">
	</image>
</g>
<g id="_x33_XusP5.tif_00000049911671888800386430000015187813092905658756_">
	
		<image style="overflow:visible;enable-background:new    ;" width="92" height="234" id="Layer_0_00000114071032076481270880000010880237234418128275_" xlink:href="5F16C5FE42D0ABAE.png"  transform="matrix(0.4948 0 0 0.4948 613.5009 83.0574)">
	</image>
</g>
</svg>
